G04 #@! TF.FileFunction,Legend,Top*
%FSLAX46Y46*%
G04 Gerber Fmt 4.6, Leading zero omitted, Abs format (unit mm)*
G04 Created by KiCad (PCBNEW 4.0.2-stable) date 12/27/2016 12:03:46 PM*
%MOMM*%
G01*
G04 APERTURE LIST*
%ADD10C,0.100000*%
%ADD11C,0.075000*%
%ADD12C,0.150000*%
G04 APERTURE END LIST*
D10*
D11*
X130102048Y-109908952D02*
X129968714Y-109718476D01*
X129873476Y-109908952D02*
X129873476Y-109508952D01*
X130025857Y-109508952D01*
X130063952Y-109528000D01*
X130083000Y-109547048D01*
X130102048Y-109585143D01*
X130102048Y-109642286D01*
X130083000Y-109680381D01*
X130063952Y-109699429D01*
X130025857Y-109718476D01*
X129873476Y-109718476D01*
X130273476Y-109699429D02*
X130406809Y-109699429D01*
X130463952Y-109908952D02*
X130273476Y-109908952D01*
X130273476Y-109508952D01*
X130463952Y-109508952D01*
X130616333Y-109889905D02*
X130673476Y-109908952D01*
X130768714Y-109908952D01*
X130806810Y-109889905D01*
X130825857Y-109870857D01*
X130844905Y-109832762D01*
X130844905Y-109794667D01*
X130825857Y-109756571D01*
X130806810Y-109737524D01*
X130768714Y-109718476D01*
X130692524Y-109699429D01*
X130654429Y-109680381D01*
X130635381Y-109661333D01*
X130616333Y-109623238D01*
X130616333Y-109585143D01*
X130635381Y-109547048D01*
X130654429Y-109528000D01*
X130692524Y-109508952D01*
X130787762Y-109508952D01*
X130844905Y-109528000D01*
X131016333Y-109699429D02*
X131149666Y-109699429D01*
X131206809Y-109908952D02*
X131016333Y-109908952D01*
X131016333Y-109508952D01*
X131206809Y-109508952D01*
X131321095Y-109508952D02*
X131549667Y-109508952D01*
X131435381Y-109908952D02*
X131435381Y-109508952D01*
X130092524Y-106988000D02*
X130054429Y-106968952D01*
X129997286Y-106968952D01*
X129940143Y-106988000D01*
X129902048Y-107026095D01*
X129883000Y-107064190D01*
X129863952Y-107140381D01*
X129863952Y-107197524D01*
X129883000Y-107273714D01*
X129902048Y-107311810D01*
X129940143Y-107349905D01*
X129997286Y-107368952D01*
X130035381Y-107368952D01*
X130092524Y-107349905D01*
X130111572Y-107330857D01*
X130111572Y-107197524D01*
X130035381Y-107197524D01*
X130283000Y-107368952D02*
X130283000Y-106968952D01*
X130435381Y-106968952D01*
X130473476Y-106988000D01*
X130492524Y-107007048D01*
X130511572Y-107045143D01*
X130511572Y-107102286D01*
X130492524Y-107140381D01*
X130473476Y-107159429D01*
X130435381Y-107178476D01*
X130283000Y-107178476D01*
X130683000Y-107368952D02*
X130683000Y-106968952D01*
X130949667Y-106968952D02*
X131025857Y-106968952D01*
X131063952Y-106988000D01*
X131102048Y-107026095D01*
X131121095Y-107102286D01*
X131121095Y-107235619D01*
X131102048Y-107311810D01*
X131063952Y-107349905D01*
X131025857Y-107368952D01*
X130949667Y-107368952D01*
X130911571Y-107349905D01*
X130873476Y-107311810D01*
X130854428Y-107235619D01*
X130854428Y-107102286D01*
X130873476Y-107026095D01*
X130911571Y-106988000D01*
X130949667Y-106968952D01*
X131368715Y-106968952D02*
X131406810Y-106968952D01*
X131444905Y-106988000D01*
X131463953Y-107007048D01*
X131483000Y-107045143D01*
X131502048Y-107121333D01*
X131502048Y-107216571D01*
X131483000Y-107292762D01*
X131463953Y-107330857D01*
X131444905Y-107349905D01*
X131406810Y-107368952D01*
X131368715Y-107368952D01*
X131330619Y-107349905D01*
X131311572Y-107330857D01*
X131292524Y-107292762D01*
X131273476Y-107216571D01*
X131273476Y-107121333D01*
X131292524Y-107045143D01*
X131311572Y-107007048D01*
X131330619Y-106988000D01*
X131368715Y-106968952D01*
X130670334Y-112448952D02*
X130537000Y-112258476D01*
X130441762Y-112448952D02*
X130441762Y-112048952D01*
X130594143Y-112048952D01*
X130632238Y-112068000D01*
X130651286Y-112087048D01*
X130670334Y-112125143D01*
X130670334Y-112182286D01*
X130651286Y-112220381D01*
X130632238Y-112239429D01*
X130594143Y-112258476D01*
X130441762Y-112258476D01*
X130803667Y-112048952D02*
X131070334Y-112448952D01*
X131070334Y-112048952D02*
X130803667Y-112448952D01*
X131222714Y-112448952D02*
X131222714Y-112048952D01*
X131317952Y-112048952D01*
X131375095Y-112068000D01*
X131413190Y-112106095D01*
X131432238Y-112144190D01*
X131451286Y-112220381D01*
X131451286Y-112277524D01*
X131432238Y-112353714D01*
X131413190Y-112391810D01*
X131375095Y-112429905D01*
X131317952Y-112448952D01*
X131222714Y-112448952D01*
X130403667Y-114715952D02*
X130537001Y-115115952D01*
X130670334Y-114715952D01*
X131032239Y-115077857D02*
X131013191Y-115096905D01*
X130956048Y-115115952D01*
X130917953Y-115115952D01*
X130860810Y-115096905D01*
X130822715Y-115058810D01*
X130803667Y-115020714D01*
X130784619Y-114944524D01*
X130784619Y-114887381D01*
X130803667Y-114811190D01*
X130822715Y-114773095D01*
X130860810Y-114735000D01*
X130917953Y-114715952D01*
X130956048Y-114715952D01*
X131013191Y-114735000D01*
X131032239Y-114754048D01*
X131432239Y-115077857D02*
X131413191Y-115096905D01*
X131356048Y-115115952D01*
X131317953Y-115115952D01*
X131260810Y-115096905D01*
X131222715Y-115058810D01*
X131203667Y-115020714D01*
X131184619Y-114944524D01*
X131184619Y-114887381D01*
X131203667Y-114811190D01*
X131222715Y-114773095D01*
X131260810Y-114735000D01*
X131317953Y-114715952D01*
X131356048Y-114715952D01*
X131413191Y-114735000D01*
X131432239Y-114754048D01*
X142878238Y-114715952D02*
X143106810Y-114715952D01*
X142992524Y-115115952D02*
X142992524Y-114715952D01*
X143202048Y-114715952D02*
X143468715Y-115115952D01*
X143468715Y-114715952D02*
X143202048Y-115115952D01*
X143621095Y-115115952D02*
X143621095Y-114715952D01*
X143716333Y-114715952D01*
X143773476Y-114735000D01*
X143811571Y-114773095D01*
X143830619Y-114811190D01*
X143849667Y-114887381D01*
X143849667Y-114944524D01*
X143830619Y-115020714D01*
X143811571Y-115058810D01*
X143773476Y-115096905D01*
X143716333Y-115115952D01*
X143621095Y-115115952D01*
X143078238Y-112195000D02*
X143040143Y-112175952D01*
X142983000Y-112175952D01*
X142925857Y-112195000D01*
X142887762Y-112233095D01*
X142868714Y-112271190D01*
X142849666Y-112347381D01*
X142849666Y-112404524D01*
X142868714Y-112480714D01*
X142887762Y-112518810D01*
X142925857Y-112556905D01*
X142983000Y-112575952D01*
X143021095Y-112575952D01*
X143078238Y-112556905D01*
X143097286Y-112537857D01*
X143097286Y-112404524D01*
X143021095Y-112404524D01*
X143268714Y-112575952D02*
X143268714Y-112175952D01*
X143497286Y-112575952D01*
X143497286Y-112175952D01*
X143687762Y-112575952D02*
X143687762Y-112175952D01*
X143783000Y-112175952D01*
X143840143Y-112195000D01*
X143878238Y-112233095D01*
X143897286Y-112271190D01*
X143916334Y-112347381D01*
X143916334Y-112404524D01*
X143897286Y-112480714D01*
X143878238Y-112518810D01*
X143840143Y-112556905D01*
X143783000Y-112575952D01*
X143687762Y-112575952D01*
X142998905Y-109870857D02*
X142979857Y-109889905D01*
X142922714Y-109908952D01*
X142884619Y-109908952D01*
X142827476Y-109889905D01*
X142789381Y-109851810D01*
X142770333Y-109813714D01*
X142751285Y-109737524D01*
X142751285Y-109680381D01*
X142770333Y-109604190D01*
X142789381Y-109566095D01*
X142827476Y-109528000D01*
X142884619Y-109508952D01*
X142922714Y-109508952D01*
X142979857Y-109528000D01*
X142998905Y-109547048D01*
X143170333Y-109908952D02*
X143170333Y-109508952D01*
X143170333Y-109699429D02*
X143398905Y-109699429D01*
X143398905Y-109908952D02*
X143398905Y-109508952D01*
X143494143Y-109947048D02*
X143798905Y-109947048D01*
X143894143Y-109908952D02*
X143894143Y-109508952D01*
X144046524Y-109508952D01*
X144084619Y-109528000D01*
X144103667Y-109547048D01*
X144122715Y-109585143D01*
X144122715Y-109642286D01*
X144103667Y-109680381D01*
X144084619Y-109699429D01*
X144046524Y-109718476D01*
X143894143Y-109718476D01*
X144294143Y-109908952D02*
X144294143Y-109508952D01*
X144389381Y-109508952D01*
X144446524Y-109528000D01*
X144484619Y-109566095D01*
X144503667Y-109604190D01*
X144522715Y-109680381D01*
X144522715Y-109737524D01*
X144503667Y-109813714D01*
X144484619Y-109851810D01*
X144446524Y-109889905D01*
X144389381Y-109908952D01*
X144294143Y-109908952D01*
X142919524Y-106988000D02*
X142881429Y-106968952D01*
X142824286Y-106968952D01*
X142767143Y-106988000D01*
X142729048Y-107026095D01*
X142710000Y-107064190D01*
X142690952Y-107140381D01*
X142690952Y-107197524D01*
X142710000Y-107273714D01*
X142729048Y-107311810D01*
X142767143Y-107349905D01*
X142824286Y-107368952D01*
X142862381Y-107368952D01*
X142919524Y-107349905D01*
X142938572Y-107330857D01*
X142938572Y-107197524D01*
X142862381Y-107197524D01*
X143110000Y-107368952D02*
X143110000Y-106968952D01*
X143262381Y-106968952D01*
X143300476Y-106988000D01*
X143319524Y-107007048D01*
X143338572Y-107045143D01*
X143338572Y-107102286D01*
X143319524Y-107140381D01*
X143300476Y-107159429D01*
X143262381Y-107178476D01*
X143110000Y-107178476D01*
X143510000Y-107368952D02*
X143510000Y-106968952D01*
X143776667Y-106968952D02*
X143852857Y-106968952D01*
X143890952Y-106988000D01*
X143929048Y-107026095D01*
X143948095Y-107102286D01*
X143948095Y-107235619D01*
X143929048Y-107311810D01*
X143890952Y-107349905D01*
X143852857Y-107368952D01*
X143776667Y-107368952D01*
X143738571Y-107349905D01*
X143700476Y-107311810D01*
X143681428Y-107235619D01*
X143681428Y-107102286D01*
X143700476Y-107026095D01*
X143738571Y-106988000D01*
X143776667Y-106968952D01*
X144100476Y-107007048D02*
X144119524Y-106988000D01*
X144157619Y-106968952D01*
X144252857Y-106968952D01*
X144290953Y-106988000D01*
X144310000Y-107007048D01*
X144329048Y-107045143D01*
X144329048Y-107083238D01*
X144310000Y-107140381D01*
X144081429Y-107368952D01*
X144329048Y-107368952D01*
D12*
X134620000Y-122047000D02*
X142240000Y-122047000D01*
X142240000Y-122047000D02*
X142240000Y-116967000D01*
X142240000Y-116967000D02*
X132080000Y-116967000D01*
X132080000Y-116967000D02*
X132080000Y-119507000D01*
X131800000Y-120777000D02*
X131800000Y-122327000D01*
X132080000Y-119507000D02*
X134620000Y-119507000D01*
X134620000Y-119507000D02*
X134620000Y-122047000D01*
X131800000Y-122327000D02*
X133350000Y-122327000D01*
X138033000Y-105528000D02*
X136033000Y-105528000D01*
X136033000Y-107578000D02*
X138033000Y-107578000D01*
M02*
