G04 #@! TF.FileFunction,Legend,Bot*
%FSLAX46Y46*%
G04 Gerber Fmt 4.6, Leading zero omitted, Abs format (unit mm)*
G04 Created by KiCad (PCBNEW 4.0.2-stable) date 12/27/2016 12:03:46 PM*
%MOMM*%
G01*
G04 APERTURE LIST*
%ADD10C,0.100000*%
%ADD11C,0.125000*%
%ADD12C,0.150000*%
G04 APERTURE END LIST*
D10*
D11*
X138449857Y-115795809D02*
X138854619Y-115795809D01*
X138902238Y-115819618D01*
X138926048Y-115843428D01*
X138949857Y-115891047D01*
X138949857Y-115962475D01*
X138926048Y-116010094D01*
X138759381Y-115795809D02*
X138783190Y-115843428D01*
X138783190Y-115938666D01*
X138759381Y-115986285D01*
X138735571Y-116010094D01*
X138687952Y-116033904D01*
X138545095Y-116033904D01*
X138497476Y-116010094D01*
X138473667Y-115986285D01*
X138449857Y-115938666D01*
X138449857Y-115843428D01*
X138473667Y-115795809D01*
X138783190Y-115557713D02*
X138449857Y-115557713D01*
X138283190Y-115557713D02*
X138307000Y-115581523D01*
X138330810Y-115557713D01*
X138307000Y-115533904D01*
X138283190Y-115557713D01*
X138330810Y-115557713D01*
X138449857Y-115391047D02*
X138449857Y-115200571D01*
X138283190Y-115319618D02*
X138711762Y-115319618D01*
X138759381Y-115295809D01*
X138783190Y-115248190D01*
X138783190Y-115200571D01*
X138783190Y-115033904D02*
X138283190Y-115033904D01*
X138783190Y-114819619D02*
X138521286Y-114819619D01*
X138473667Y-114843428D01*
X138449857Y-114891047D01*
X138449857Y-114962476D01*
X138473667Y-115010095D01*
X138497476Y-115033904D01*
X138449857Y-114367238D02*
X138783190Y-114367238D01*
X138449857Y-114581523D02*
X138711762Y-114581523D01*
X138759381Y-114557714D01*
X138783190Y-114510095D01*
X138783190Y-114438666D01*
X138759381Y-114391047D01*
X138735571Y-114367238D01*
X138783190Y-114129142D02*
X138283190Y-114129142D01*
X138473667Y-114129142D02*
X138449857Y-114081523D01*
X138449857Y-113986285D01*
X138473667Y-113938666D01*
X138497476Y-113914857D01*
X138545095Y-113891047D01*
X138687952Y-113891047D01*
X138735571Y-113914857D01*
X138759381Y-113938666D01*
X138783190Y-113986285D01*
X138783190Y-114081523D01*
X138759381Y-114129142D01*
X138735571Y-113676761D02*
X138759381Y-113652952D01*
X138783190Y-113676761D01*
X138759381Y-113700571D01*
X138735571Y-113676761D01*
X138783190Y-113676761D01*
X138759381Y-113224381D02*
X138783190Y-113272000D01*
X138783190Y-113367238D01*
X138759381Y-113414857D01*
X138735571Y-113438666D01*
X138687952Y-113462476D01*
X138545095Y-113462476D01*
X138497476Y-113438666D01*
X138473667Y-113414857D01*
X138449857Y-113367238D01*
X138449857Y-113272000D01*
X138473667Y-113224381D01*
X138783190Y-112938667D02*
X138759381Y-112986286D01*
X138735571Y-113010095D01*
X138687952Y-113033905D01*
X138545095Y-113033905D01*
X138497476Y-113010095D01*
X138473667Y-112986286D01*
X138449857Y-112938667D01*
X138449857Y-112867238D01*
X138473667Y-112819619D01*
X138497476Y-112795810D01*
X138545095Y-112772000D01*
X138687952Y-112772000D01*
X138735571Y-112795810D01*
X138759381Y-112819619D01*
X138783190Y-112867238D01*
X138783190Y-112938667D01*
X138783190Y-112557714D02*
X138449857Y-112557714D01*
X138497476Y-112557714D02*
X138473667Y-112533905D01*
X138449857Y-112486286D01*
X138449857Y-112414857D01*
X138473667Y-112367238D01*
X138521286Y-112343429D01*
X138783190Y-112343429D01*
X138521286Y-112343429D02*
X138473667Y-112319619D01*
X138449857Y-112272000D01*
X138449857Y-112200572D01*
X138473667Y-112152952D01*
X138521286Y-112129143D01*
X138783190Y-112129143D01*
X138259381Y-111533905D02*
X138902238Y-111962476D01*
X138449857Y-111438666D02*
X138449857Y-111248190D01*
X138783190Y-111367237D02*
X138354619Y-111367237D01*
X138307000Y-111343428D01*
X138283190Y-111295809D01*
X138283190Y-111248190D01*
X138449857Y-110867238D02*
X138783190Y-110867238D01*
X138449857Y-111081523D02*
X138711762Y-111081523D01*
X138759381Y-111057714D01*
X138783190Y-111010095D01*
X138783190Y-110938666D01*
X138759381Y-110891047D01*
X138735571Y-110867238D01*
X138283190Y-110533904D02*
X138283190Y-110486285D01*
X138307000Y-110438666D01*
X138330810Y-110414857D01*
X138378429Y-110391047D01*
X138473667Y-110367238D01*
X138592714Y-110367238D01*
X138687952Y-110391047D01*
X138735571Y-110414857D01*
X138759381Y-110438666D01*
X138783190Y-110486285D01*
X138783190Y-110533904D01*
X138759381Y-110581523D01*
X138735571Y-110605333D01*
X138687952Y-110629142D01*
X138592714Y-110652952D01*
X138473667Y-110652952D01*
X138378429Y-110629142D01*
X138330810Y-110605333D01*
X138307000Y-110581523D01*
X138283190Y-110533904D01*
X138783190Y-110200571D02*
X138449857Y-109938667D01*
X138449857Y-110200571D02*
X138783190Y-109938667D01*
X138783190Y-109486286D02*
X138783190Y-109772000D01*
X138783190Y-109629143D02*
X138283190Y-109629143D01*
X138354619Y-109676762D01*
X138402238Y-109724381D01*
X138426048Y-109772000D01*
X138783190Y-109010096D02*
X138783190Y-109295810D01*
X138783190Y-109152953D02*
X138283190Y-109152953D01*
X138354619Y-109200572D01*
X138402238Y-109248191D01*
X138426048Y-109295810D01*
D12*
X134620000Y-108458000D02*
X134620000Y-116078000D01*
X132080000Y-108458000D02*
X132080000Y-116078000D01*
X131800000Y-105638000D02*
X131800000Y-107188000D01*
X134620000Y-116078000D02*
X132080000Y-116078000D01*
X132080000Y-108458000D02*
X134620000Y-108458000D01*
X134900000Y-107188000D02*
X134900000Y-105638000D01*
X134900000Y-105638000D02*
X131800000Y-105638000D01*
X139573000Y-113538000D02*
X139573000Y-105918000D01*
X142113000Y-113538000D02*
X142113000Y-105918000D01*
X142393000Y-116358000D02*
X142393000Y-114808000D01*
X139573000Y-105918000D02*
X142113000Y-105918000D01*
X142113000Y-113538000D02*
X139573000Y-113538000D01*
X139293000Y-114808000D02*
X139293000Y-116358000D01*
X139293000Y-116358000D02*
X142393000Y-116358000D01*
M02*
