G04 #@! TF.FileFunction,Copper,L1,Top,Signal*
%FSLAX46Y46*%
G04 Gerber Fmt 4.6, Leading zero omitted, Abs format (unit mm)*
G04 Created by KiCad (PCBNEW 4.0.2-stable) date 12/27/2016 12:03:46 PM*
%MOMM*%
G01*
G04 APERTURE LIST*
%ADD10C,0.100000*%
%ADD11R,1.727200X1.727200*%
%ADD12O,1.727200X1.727200*%
%ADD13R,2.032000X1.727200*%
%ADD14O,2.032000X1.727200*%
%ADD15R,1.000000X1.600000*%
%ADD16C,0.600000*%
%ADD17C,0.250000*%
%ADD18C,0.254000*%
G04 APERTURE END LIST*
D10*
D11*
X133350000Y-120777000D03*
D12*
X133350000Y-118237000D03*
X135890000Y-120777000D03*
X135890000Y-118237000D03*
X138430000Y-120777000D03*
X138430000Y-118237000D03*
X140970000Y-120777000D03*
X140970000Y-118237000D03*
D13*
X133350000Y-107188000D03*
D14*
X133350000Y-109728000D03*
X133350000Y-112268000D03*
X133350000Y-114808000D03*
D13*
X140843000Y-114808000D03*
D14*
X140843000Y-112268000D03*
X140843000Y-109728000D03*
X140843000Y-107188000D03*
D15*
X135533000Y-106553000D03*
X138533000Y-106553000D03*
D16*
X132207000Y-119380000D03*
X134112000Y-117221000D03*
X137033000Y-119888000D03*
X136779000Y-117221000D03*
X137922000Y-111252000D03*
X139319000Y-117221000D03*
X139192000Y-113284000D03*
X141986000Y-117221000D03*
D17*
X133350000Y-120777000D02*
X133350000Y-120523000D01*
X133350000Y-120523000D02*
X132207000Y-119380000D01*
X133731000Y-112268000D02*
X133350000Y-112268000D01*
X133350000Y-120777000D02*
X133350000Y-120396000D01*
X133350000Y-120777000D02*
X133350000Y-120269000D01*
X134112000Y-117221000D02*
X136144000Y-115189000D01*
X135533000Y-107847000D02*
X135533000Y-106553000D01*
X136144000Y-108458000D02*
X135533000Y-107847000D01*
X136144000Y-115189000D02*
X136144000Y-108458000D01*
X133350000Y-118237000D02*
X133350000Y-117983000D01*
X133350000Y-117983000D02*
X134112000Y-117221000D01*
X135890000Y-120777000D02*
X136017000Y-120777000D01*
X136017000Y-120777000D02*
X136906000Y-119888000D01*
X136906000Y-119888000D02*
X137033000Y-119888000D01*
X135890000Y-118110000D02*
X136779000Y-117221000D01*
X135890000Y-118237000D02*
X135890000Y-118110000D01*
X133350000Y-109855000D02*
X133350000Y-109728000D01*
X135890000Y-118237000D02*
X135890000Y-118040998D01*
X138430000Y-120396000D02*
X137160000Y-119126000D01*
X137160000Y-119126000D02*
X137160000Y-117729000D01*
X137160000Y-117729000D02*
X137922000Y-116967000D01*
X137922000Y-116967000D02*
X137922000Y-111252000D01*
X138430000Y-120777000D02*
X138430000Y-120396000D01*
X138430000Y-120777000D02*
X138430000Y-120269000D01*
X138430000Y-118110000D02*
X139319000Y-117221000D01*
X138430000Y-118237000D02*
X138430000Y-118110000D01*
X138533000Y-106553000D02*
X138533000Y-110212000D01*
X139192000Y-110871000D02*
X139192000Y-113284000D01*
X138533000Y-110212000D02*
X139192000Y-110871000D01*
X140970000Y-120777000D02*
X140970000Y-120396000D01*
X140970000Y-120396000D02*
X139700000Y-119126000D01*
X139700000Y-119126000D02*
X139700000Y-117729000D01*
X139700000Y-117729000D02*
X139954000Y-117475000D01*
X139954000Y-117475000D02*
X139954000Y-116713000D01*
X139954000Y-116713000D02*
X139192000Y-115951000D01*
X139192000Y-115951000D02*
X139192000Y-113284000D01*
X140970000Y-120777000D02*
X140970000Y-120650000D01*
X138533000Y-106553000D02*
X138533000Y-107339000D01*
X140970000Y-118237000D02*
X141986000Y-117221000D01*
X140970000Y-114935000D02*
X140843000Y-114808000D01*
D18*
G36*
X134398000Y-105997474D02*
X134366000Y-105990994D01*
X132334000Y-105990994D01*
X132212821Y-106013795D01*
X132101526Y-106085412D01*
X132026862Y-106194686D01*
X132000594Y-106324400D01*
X132000594Y-108051600D01*
X132023395Y-108172779D01*
X132095012Y-108284074D01*
X132204286Y-108358738D01*
X132334000Y-108385006D01*
X134366000Y-108385006D01*
X134487179Y-108362205D01*
X134598474Y-108290588D01*
X134673138Y-108181314D01*
X134699406Y-108051600D01*
X134699406Y-107902140D01*
X134906691Y-107988000D01*
X135247250Y-107988000D01*
X135406000Y-107829250D01*
X135406000Y-106680000D01*
X135660000Y-106680000D01*
X135660000Y-107829250D01*
X135818750Y-107988000D01*
X136159309Y-107988000D01*
X136392698Y-107891327D01*
X136571327Y-107712699D01*
X136668000Y-107479310D01*
X136668000Y-106838750D01*
X136509250Y-106680000D01*
X135660000Y-106680000D01*
X135406000Y-106680000D01*
X135386000Y-106680000D01*
X135386000Y-106426000D01*
X135406000Y-106426000D01*
X135406000Y-106406000D01*
X135660000Y-106406000D01*
X135660000Y-106426000D01*
X136509250Y-106426000D01*
X136668000Y-106267250D01*
X136668000Y-105685000D01*
X137713364Y-105685000D01*
X137699594Y-105753000D01*
X137699594Y-107353000D01*
X137722395Y-107474179D01*
X137794012Y-107585474D01*
X137903286Y-107660138D01*
X138033000Y-107686406D01*
X138081000Y-107686406D01*
X138081000Y-110212000D01*
X138115406Y-110384973D01*
X138213388Y-110531612D01*
X138740000Y-111058224D01*
X138740000Y-112849272D01*
X138660765Y-112928369D01*
X138565109Y-113158735D01*
X138564891Y-113408171D01*
X138660145Y-113638703D01*
X138740000Y-113718698D01*
X138740000Y-115951000D01*
X138774406Y-116123973D01*
X138872388Y-116270612D01*
X139195668Y-116593892D01*
X139194829Y-116593891D01*
X138964297Y-116689145D01*
X138787765Y-116865369D01*
X138699981Y-117076777D01*
X138430000Y-117023075D01*
X138360080Y-117036983D01*
X138374000Y-116967000D01*
X138374000Y-111686728D01*
X138453235Y-111607631D01*
X138548891Y-111377265D01*
X138549109Y-111127829D01*
X138453855Y-110897297D01*
X138277631Y-110720765D01*
X138047265Y-110625109D01*
X137797829Y-110624891D01*
X137567297Y-110720145D01*
X137390765Y-110896369D01*
X137295109Y-111126735D01*
X137294891Y-111376171D01*
X137390145Y-111606703D01*
X137470000Y-111686698D01*
X137470000Y-116779776D01*
X137332089Y-116917687D01*
X137310855Y-116866297D01*
X137134631Y-116689765D01*
X136904265Y-116594109D01*
X136654829Y-116593891D01*
X136424297Y-116689145D01*
X136247765Y-116865369D01*
X136159981Y-117076777D01*
X135890000Y-117023075D01*
X135434377Y-117113704D01*
X135048119Y-117371794D01*
X134790029Y-117758052D01*
X134777734Y-117819864D01*
X134556821Y-117348510D01*
X134124947Y-116954312D01*
X133709026Y-116782042D01*
X133477000Y-116903183D01*
X133477000Y-118110000D01*
X133497000Y-118110000D01*
X133497000Y-118364000D01*
X133477000Y-118364000D01*
X133477000Y-118384000D01*
X133223000Y-118384000D01*
X133223000Y-118364000D01*
X132015531Y-118364000D01*
X131895032Y-118596027D01*
X131987091Y-118792449D01*
X131852297Y-118848145D01*
X131847000Y-118853433D01*
X131847000Y-117877973D01*
X131895032Y-117877973D01*
X132015531Y-118110000D01*
X133223000Y-118110000D01*
X133223000Y-116903183D01*
X132990974Y-116782042D01*
X132575053Y-116954312D01*
X132143179Y-117348510D01*
X131895032Y-117877973D01*
X131847000Y-117877973D01*
X131847000Y-116586000D01*
X131816400Y-116432161D01*
X131745488Y-116326034D01*
X131753886Y-115200635D01*
X131999268Y-115710036D01*
X132435680Y-116099954D01*
X132988087Y-116293184D01*
X133223000Y-116148924D01*
X133223000Y-114935000D01*
X133477000Y-114935000D01*
X133477000Y-116148924D01*
X133711913Y-116293184D01*
X134264320Y-116099954D01*
X134700732Y-115710036D01*
X134954709Y-115182791D01*
X134957358Y-115167026D01*
X134836217Y-114935000D01*
X133477000Y-114935000D01*
X133223000Y-114935000D01*
X133203000Y-114935000D01*
X133203000Y-114681000D01*
X133223000Y-114681000D01*
X133223000Y-114661000D01*
X133477000Y-114661000D01*
X133477000Y-114681000D01*
X134836217Y-114681000D01*
X134957358Y-114448974D01*
X134954709Y-114433209D01*
X134700732Y-113905964D01*
X134264320Y-113516046D01*
X133892961Y-113386146D01*
X133984334Y-113367971D01*
X134370592Y-113109881D01*
X134628682Y-112723623D01*
X134719311Y-112268000D01*
X134628682Y-111812377D01*
X134370592Y-111426119D01*
X133984334Y-111168029D01*
X133528711Y-111077400D01*
X133171289Y-111077400D01*
X132715666Y-111168029D01*
X132329408Y-111426119D01*
X132071318Y-111812377D01*
X131980689Y-112268000D01*
X132071318Y-112723623D01*
X132329408Y-113109881D01*
X132715666Y-113367971D01*
X132807039Y-113386146D01*
X132435680Y-113516046D01*
X131999268Y-113905964D01*
X131759839Y-114403008D01*
X131794726Y-109728000D01*
X131980689Y-109728000D01*
X132071318Y-110183623D01*
X132329408Y-110569881D01*
X132715666Y-110827971D01*
X133171289Y-110918600D01*
X133528711Y-110918600D01*
X133984334Y-110827971D01*
X134370592Y-110569881D01*
X134628682Y-110183623D01*
X134719311Y-109728000D01*
X134628682Y-109272377D01*
X134370592Y-108886119D01*
X133984334Y-108628029D01*
X133528711Y-108537400D01*
X133171289Y-108537400D01*
X132715666Y-108628029D01*
X132329408Y-108886119D01*
X132071318Y-109272377D01*
X131980689Y-109728000D01*
X131794726Y-109728000D01*
X131824898Y-105685000D01*
X134398000Y-105685000D01*
X134398000Y-105997474D01*
X134398000Y-105997474D01*
G37*
X134398000Y-105997474D02*
X134366000Y-105990994D01*
X132334000Y-105990994D01*
X132212821Y-106013795D01*
X132101526Y-106085412D01*
X132026862Y-106194686D01*
X132000594Y-106324400D01*
X132000594Y-108051600D01*
X132023395Y-108172779D01*
X132095012Y-108284074D01*
X132204286Y-108358738D01*
X132334000Y-108385006D01*
X134366000Y-108385006D01*
X134487179Y-108362205D01*
X134598474Y-108290588D01*
X134673138Y-108181314D01*
X134699406Y-108051600D01*
X134699406Y-107902140D01*
X134906691Y-107988000D01*
X135247250Y-107988000D01*
X135406000Y-107829250D01*
X135406000Y-106680000D01*
X135660000Y-106680000D01*
X135660000Y-107829250D01*
X135818750Y-107988000D01*
X136159309Y-107988000D01*
X136392698Y-107891327D01*
X136571327Y-107712699D01*
X136668000Y-107479310D01*
X136668000Y-106838750D01*
X136509250Y-106680000D01*
X135660000Y-106680000D01*
X135406000Y-106680000D01*
X135386000Y-106680000D01*
X135386000Y-106426000D01*
X135406000Y-106426000D01*
X135406000Y-106406000D01*
X135660000Y-106406000D01*
X135660000Y-106426000D01*
X136509250Y-106426000D01*
X136668000Y-106267250D01*
X136668000Y-105685000D01*
X137713364Y-105685000D01*
X137699594Y-105753000D01*
X137699594Y-107353000D01*
X137722395Y-107474179D01*
X137794012Y-107585474D01*
X137903286Y-107660138D01*
X138033000Y-107686406D01*
X138081000Y-107686406D01*
X138081000Y-110212000D01*
X138115406Y-110384973D01*
X138213388Y-110531612D01*
X138740000Y-111058224D01*
X138740000Y-112849272D01*
X138660765Y-112928369D01*
X138565109Y-113158735D01*
X138564891Y-113408171D01*
X138660145Y-113638703D01*
X138740000Y-113718698D01*
X138740000Y-115951000D01*
X138774406Y-116123973D01*
X138872388Y-116270612D01*
X139195668Y-116593892D01*
X139194829Y-116593891D01*
X138964297Y-116689145D01*
X138787765Y-116865369D01*
X138699981Y-117076777D01*
X138430000Y-117023075D01*
X138360080Y-117036983D01*
X138374000Y-116967000D01*
X138374000Y-111686728D01*
X138453235Y-111607631D01*
X138548891Y-111377265D01*
X138549109Y-111127829D01*
X138453855Y-110897297D01*
X138277631Y-110720765D01*
X138047265Y-110625109D01*
X137797829Y-110624891D01*
X137567297Y-110720145D01*
X137390765Y-110896369D01*
X137295109Y-111126735D01*
X137294891Y-111376171D01*
X137390145Y-111606703D01*
X137470000Y-111686698D01*
X137470000Y-116779776D01*
X137332089Y-116917687D01*
X137310855Y-116866297D01*
X137134631Y-116689765D01*
X136904265Y-116594109D01*
X136654829Y-116593891D01*
X136424297Y-116689145D01*
X136247765Y-116865369D01*
X136159981Y-117076777D01*
X135890000Y-117023075D01*
X135434377Y-117113704D01*
X135048119Y-117371794D01*
X134790029Y-117758052D01*
X134777734Y-117819864D01*
X134556821Y-117348510D01*
X134124947Y-116954312D01*
X133709026Y-116782042D01*
X133477000Y-116903183D01*
X133477000Y-118110000D01*
X133497000Y-118110000D01*
X133497000Y-118364000D01*
X133477000Y-118364000D01*
X133477000Y-118384000D01*
X133223000Y-118384000D01*
X133223000Y-118364000D01*
X132015531Y-118364000D01*
X131895032Y-118596027D01*
X131987091Y-118792449D01*
X131852297Y-118848145D01*
X131847000Y-118853433D01*
X131847000Y-117877973D01*
X131895032Y-117877973D01*
X132015531Y-118110000D01*
X133223000Y-118110000D01*
X133223000Y-116903183D01*
X132990974Y-116782042D01*
X132575053Y-116954312D01*
X132143179Y-117348510D01*
X131895032Y-117877973D01*
X131847000Y-117877973D01*
X131847000Y-116586000D01*
X131816400Y-116432161D01*
X131745488Y-116326034D01*
X131753886Y-115200635D01*
X131999268Y-115710036D01*
X132435680Y-116099954D01*
X132988087Y-116293184D01*
X133223000Y-116148924D01*
X133223000Y-114935000D01*
X133477000Y-114935000D01*
X133477000Y-116148924D01*
X133711913Y-116293184D01*
X134264320Y-116099954D01*
X134700732Y-115710036D01*
X134954709Y-115182791D01*
X134957358Y-115167026D01*
X134836217Y-114935000D01*
X133477000Y-114935000D01*
X133223000Y-114935000D01*
X133203000Y-114935000D01*
X133203000Y-114681000D01*
X133223000Y-114681000D01*
X133223000Y-114661000D01*
X133477000Y-114661000D01*
X133477000Y-114681000D01*
X134836217Y-114681000D01*
X134957358Y-114448974D01*
X134954709Y-114433209D01*
X134700732Y-113905964D01*
X134264320Y-113516046D01*
X133892961Y-113386146D01*
X133984334Y-113367971D01*
X134370592Y-113109881D01*
X134628682Y-112723623D01*
X134719311Y-112268000D01*
X134628682Y-111812377D01*
X134370592Y-111426119D01*
X133984334Y-111168029D01*
X133528711Y-111077400D01*
X133171289Y-111077400D01*
X132715666Y-111168029D01*
X132329408Y-111426119D01*
X132071318Y-111812377D01*
X131980689Y-112268000D01*
X132071318Y-112723623D01*
X132329408Y-113109881D01*
X132715666Y-113367971D01*
X132807039Y-113386146D01*
X132435680Y-113516046D01*
X131999268Y-113905964D01*
X131759839Y-114403008D01*
X131794726Y-109728000D01*
X131980689Y-109728000D01*
X132071318Y-110183623D01*
X132329408Y-110569881D01*
X132715666Y-110827971D01*
X133171289Y-110918600D01*
X133528711Y-110918600D01*
X133984334Y-110827971D01*
X134370592Y-110569881D01*
X134628682Y-110183623D01*
X134719311Y-109728000D01*
X134628682Y-109272377D01*
X134370592Y-108886119D01*
X133984334Y-108628029D01*
X133528711Y-108537400D01*
X133171289Y-108537400D01*
X132715666Y-108628029D01*
X132329408Y-108886119D01*
X132071318Y-109272377D01*
X131980689Y-109728000D01*
X131794726Y-109728000D01*
X131824898Y-105685000D01*
X134398000Y-105685000D01*
X134398000Y-105997474D01*
M02*
